# xmcd CD database file
#
# Track frame offsets:
#	182
#	13540
#	27997
#	44875
#	58275
#	69640
#	82850
#	95267
#	108532
#	123722
#	138545
#	150095
#	163062
#	174577
#	190885
#	203545
#	217410
#	229770
#	245247
#
# Disc length: 3421 seconds
#
# Revision: 1
# Processed by: cddbd v1.5.2PL0 Copyright (c) Steve Scherf et al.
# Submitted via: CDex 1.70beta2
#
DISCID=160d5b13
DTITLE=The New Seekers - The Best Of The New Seekers
DYEAR=2000
DGENRE=Pop
TTITLE0=I Get A Little Sentimental Over You (Macaulay-Stephens)
TTITLE1=You Won't Find Another Fool Like Me (Macaulay-Stephens)
TTITLE2=Fire And Rain - My Sweet Lord- Day By Day (medley)
TTITLE3=All Right My Love (Potger)
TTITLE4=A Brand New Song (Carry-Williams)
TTITLE5=Come On World (Hugg)
TTITLE6=Crying Time (Charles)
TTITLE7=Dedicated To The One I Love (Bass-Pauling)
TTITLE8=Everything's Changed (Macaulay-Stephens)
TTITLE9=Vado Via (Riccardi-Albertelli)
TTITLE10=Here There And Everywhere (Lennon-McCartney)
TTITLE11=Look What They've Done To My Song (Safka)
TTITLE12=Me And My Guitar (Williams)
TTITLE13=Melting Pot (Cook-Greenaway)
TTITLE14=An Old Fashioned Love Song (Williams)
TTITLE15=Greatest Love Song I've Ever Heard (Holler)
TTITLE16=You're The One (Hatch-Trent)
TTITLE17=Brother Love's Travelling Salvation Show (Neil Diamond)
TTITLE18=Friends Medley: Friends (Klingman-Linhart) and With A Little Help From My Friends (Lennon-McCartney)
EXTD=YEAR: 2000
EXTT0=
EXTT1=
EXTT2=
EXTT3=
EXTT4=
EXTT5=
EXTT6=
EXTT7=
EXTT8=
EXTT9=
EXTT10=
EXTT11=
EXTT12=
EXTT13=
EXTT14=
EXTT15=
EXTT16=
EXTT17=
EXTT18=
PLAYORDER=
